<?xml version="1.0" encoding="utf-8"?>
<!-- Generator: Adobe Illustrator 23.0.2, SVG Export Plug-In . SVG Version: 6.00 Build 0)  -->
<svg version="1.1" xmlns="http://www.w3.org/2000/svg" xmlns:xlink="http://www.w3.org/1999/xlink" x="0px" y="0px"
	 viewBox="0 0 612 792" style="enable-background:new 0 0 612 792;" xml:space="preserve">
<style type="text/css">
	.st0{fill:#0099FF;stroke:#FFFFFF;stroke-miterlimit:10;}
	.st1{fill:#FFFFFF;}
	.st2{font-family:'ArialRoundedMTBold';}
	.st3{font-size:30px;}
</style>
<g id="Capa_1">
	<g id="Capa_20">
		<path class="st0" d="M302.38,139.21c-71.31,38.44-140.31,59.12-207.44,65.35c0.46,48.9,3.71,102.22,8.8,158.42h66.63
			c0.72-0.13,1.19-0.68,1.31-1.84v-7.4c-0.19-2.11-3.23-3.09-6.75-3.81c-6.54-1.28-8.62-0.31-8.05-7.29
			c1.1-8.68,3.47-7.65,8.49-7.07c6.54,0.68,8.68,0.82,9.47-5.98c1.13-6.53,0.01-7.86-5.33-9.14c-6.19-1.24-7.65-3.18-5.88-9.68
			c1.9-5.76,2.94-6.38,9.9-4.13c5.79,1.7,7.18,2.11,10.01-3.92c2.86-5.67,1.9-6.94-3.26-10.34c-5.32-3.45-6.5-4.56-2.83-10.77
			c3.51-5.17,4.58-4.21,9.68-1.41c6.25,3.19,7.5,3.47,11.54-1.74c3.36-5.17,3.61-5.68-1.53-10.77c-4.84-5.2-5.56-6.33-0.87-11.1
			c4.55-4,5.67-3.24,10.23,0.76c5.7,4.59,6.93,4.65,11.42,0.76c4.29-4.06,5.47-5.16,0.76-11.32c-3.68-4.91-4.51-5.95,1.74-10.44
			c5.46-3.68,5.8-2.64,10.12,3.05c4.62,6.37,5.39,5.95,11.21,2.72c5.06-3.35,5.47-2.93,2.83-10.01c-2.83-7.47-2.83-7.47,3.37-10.23
			c6.76-2.79,7.03-2.03,9.68,4.46c3.38,6.68,4.07,7.23,9.57,5.55c6.76-2.41,7.52-1.92,5.88-9.47c-0.99-4.65-1.61-8.32,5.66-9.25
			c7.21-0.88,7.7,0.65,8.38,6.85c1.12,8.21,2.44,7.51,8.38,7.29c5.98-0.12,6.9-1.02,6.9-6.2V139.21z"/>
	</g>
	<g id="Capa_19">
		<path class="st0" d="M302.38,363.09l-38.37-0.11c-0.93-26.53,12.62-42.01,38.37-43.7V363.09z"/>
	</g>
	<g id="Capa_18">
		<path class="st0" d="M243.98,362.98h-47.21c-0.48-11.41,0.21-21.94,3.03-30.9c2.4-7.42,7.14-10.54,14.98-7.91l25.33,14.56
			c3.49,2.22,5.51,4.33,4.54,8.25C243.61,352.37,243.43,357.7,243.98,362.98z"/>
	</g>
	<g id="Capa_17">
		<path class="st0" d="M254.77,313l-23.39-13.3c-9.04-5.64-9.05-12.41,0-20.32c11.08-9.96,24.59-17.62,40.57-22.93
			c8.38-2.43,15.32,0.08,15.6,9.07v30.92c-0.02,3.75-1.66,4.73-5.08,5.88c-5.54,2.06-11.29,5.4-17.22,9.76
			C260.67,315.5,259.93,315.81,254.77,313z"/>
	</g>
	<g id="Capa_16">
		<path class="st0" d="M510.89,374.52c-14.16,69.08-36.7,127.59-69.64,172.97H314.3v-39.71c20.65-7.32,38.51-26.4,53.69-56.75
			l-11.79,2.82c-13.36,20.49-27.23,35.4-41.9,41.51v-8.2l5.52-3.2l-5.52-6.28v-15.12l13.59,15.12l7.05-6.41
			c-5.43-5.83-11.37-12.27-18.06-19.22c68.85,3.02,106.72-27.4,126.31-77.54H510.89z"/>
	</g>
	<g id="Capa_15">
		<path class="st0" d="M440.81,374.52h-8.31c-1.03,2.81-2.56,5.62-4.57,8.43l-7.57-8.43h-13.45l15.26,16.78l-6.1,7.43l-16.51-18.93
			c-1.07,3.54-2.37,7.32-3.87,11.3l13.3,14.4c-2.13,2.18-4.64,4.17-7.51,5.97l-9.52-11.05c-3.79,9.35-8.11,18.61-12.95,27.77
			l-11.41,4.2c10.28-19.82,19.23-39.17,26.43-57.87h-79.54l-0.17,67.54C376.9,443.91,417.92,420.03,440.81,374.52z"/>
	</g>
	<g id="Capa_14">
		<path class="st0" d="M314.3,604.97v59.16c29.69-15.14,55.39-35.41,78.4-59.16H314.3z"/>
	</g>
	<g id="Capa_13">
		<path class="st0" d="M302.33,604.97v59.16c-26.88-12.88-52.61-33.33-77.53-59.16H302.33z"/>
	</g>
	<g id="Capa_12">
		<path class="st0" d="M159.47,374.52h-53.46c12.88,66.79,36.33,124.29,69.62,173.14l126.7-0.16V516.2
			c-10.26,6.26-19.11,8.53-27.17,4.47c-17.17,13.57-26.69,9.62-42.11,6.02c-17.34-3.62-25.58-10.01-24.92-20.28
			c-15.53,5.21-25.45-4.92-19.25-23.55c-19.31,4.48-28.92-6.16-22.41-21.77c-20.66,1.97-28.2-54.95-9.4-67.25
			C154.24,387.47,154.81,381.03,159.47,374.52z"/>
	</g>
	<g id="Capa_11">
		<path class="st0" d="M173.9,374.52h-8.5c-3.9,4.91-5.52,10.18-4.58,15.84c0.43,1.67,1.43,1.9,2.57,1.34
			C174.33,387.19,174.39,385.36,173.9,374.52z"/>
	</g>
	<g id="Capa_10">
		<path class="st0" d="M196.89,374.52c3.03,3.72,8.72,2.58,15.13,0H196.89z"/>
	</g>
	<g id="Capa_9">
		<path class="st0" d="M252.86,374.52c11.36,15.77,24.13,15.08,37.46,0H252.86z"/>
	</g>
	<g id="Capa_8">
		<path class="st0" d="M302.33,427.31c-14.23-10.93-14.69-23.24,0-37.07V427.31z"/>
	</g>
	<g id="Capa_7">
		<path class="st0" d="M302.33,484.66c-13.73-2.88-1.93-15.68,0-31.37V484.66z"/>
	</g>
	<g id="Capa_6">
		<path class="st0" d="M224.44,449.36c-2.7,4.64-4.86,9.01-5.5,12.61c-2.34-0.71-4.76-0.66-7.26,0c0.81-2.63,0.76-5.25,0-7.84
			C215.8,453.44,220.07,451.76,224.44,449.36z"/>
	</g>
	<g id="Capa_5">
		<path class="st0" d="M263.94,411.64c-5.61,4.6-12.47,7.75-17.76,7.44c0.73,5.2-0.47,9.67-3.44,13.49
			c4.87-2.71,9.29-3.59,13.15-2.25c1.68-7.08,4.95-13.18,9.01-17.67c0.49-0.47,2.3-1.34,3.19-1.5c0.1-1.02,0.33-1.92,1.42-2.66
			c5.48-3.97,11.71-5.28,17.28-2.84c2.06-9.64,8.27-16.21,15.54-21.57v-9.54h-5.88c-5.37,8.79-13.22,13.92-23.34,15.71
			c2.75,5.18,0.14,11.61-4.68,17.09c-0.65,0.84-1.37,1.22-2.57,1.49C265.65,409.79,264.97,410.73,263.94,411.64z"/>
	</g>
	<g id="Capa_4">
		<path class="st0" d="M302.33,503.86v6.99c-5.69,3.59-14.66,8.55-21.13,6.99c-0.57-0.14-5.07-1.28-2.11-5.36l4.06-5.52
			c2.34-4.1,8.65-1.76,10.24-1.62C295,505.62,299.79,504.57,302.33,503.86z"/>
	</g>
	<g id="Capa_3">
		<path class="st0" d="M284.34,442.11c4.76-13.63-3.16-16.68-5.36-0.94c-1.14,14.9-3.6,27.21-9.17,36.2
			c-1.99,3.23-6.7,6.45-13.64,9.18c-5.7,2.28-9.84,5.02-12.33,2.75c-0.78-0.64-1.31-1.11,0-2.1c10.59-7.22,15.6-14.06,16.13-20.59
			c7.15-6.38,4.83-19.73,1.18-34.05c-1.52-5.98,5.74-17.11,14.56-22.35c5.67-3.07,10.92-1.5,14.43,4.85l7.61,14.3
			c3.7,7.44,4.01,14.37,1.32,20.85l-8.79,18.76c-3.15,8.82-0.76,12.53,4.2,14.94l7.87,3.86v11.14c-1.87,0.76-4.07,1.25-6.55,1.52
			c-9.37,1.43-12.5-2.83-13.23-6.33c-0.65-2.99-2.9-6.25-5.54-8.98C271.55,479.03,278.58,459.15,284.34,442.11z"/>
	</g>
	<g id="Capa_44">
		<path class="st0" d="M377.55,333.58c-1.04-4.22-1.05-7.69-1.05-9.81c0-2.2,0.03-5.12,0.86-8.76c1.15-5.06,3.16-8.44,2.38-8.95
			c-0.31-0.2-0.8,0.22-1.62,0.67c-2.21,1.21-4.22,1.18-8,1.14c-1.43-0.02-4.01-0.15-7.14-0.95c-2.95-0.76-5.75-1.47-8.48-3.81
			c-1.51-1.29-2.7-2.31-3.33-4.1c-1.41-3.95,1.5-7.21-0.48-9.81c-0.32-0.43-0.88-0.76-2-1.43c-2.07-1.23-4-1.89-7.52-2.76
			c-4.01-0.99-6.01-1.49-8.38-1.71c-1.56-0.15-4.15-0.38-7.33,0c-2.45,0.29-6.48,1.09-11.05,3.62l-0.1,75.94
			c7.72,0.54,59.91,0.01,60.33,0c0.16-0.47,9.4-7.7,10.05-7.75c0.54-0.16,0.19-3.33,0.19-3.33c-0.18-0.37-0.45-0.93-0.76-1.62
			c-0.63-1.4-1.03-2.47-1.14-2.76C381.36,343.16,378.92,339.15,377.55,333.58z"/>
	</g>
	<g id="Capa_43">
		<path class="st0" d="M377.95,195.95c-2.61,3.16-1.42,18.11-3.72,24.2c-2.64-8.55-4.87-17.14-6.64-25.79
			c-13.03-3.83-22.54,4.7-23.48,10.66c1.23,3.12,3.49,5.46,4.54,8.01c0.73,1.68,3.36,9.52,1.38,14.07
			c-1.3,4.36-11.87,13.05-12.02,12.23l-11.22-3.67c-4.5-1.28-8.66-2.08-12.31-2.6v-93.86c27.87,15.46,63.95,32.31,107.66,45.53
			c37.73,11.41,72.02,17.35,100.63,20.42c-0.68,25.75-1.78,52.24-3.37,79.42c-1.58,26.92-3.55,53.1-5.85,78.52h-71.44
			c-1.35-9.98-4.56-19.36-10.04-28c3.84-13,7.35-25.33,9.49-37.1l15.9,4.27c4.93-2.84,7.82-6.99,8.7-12.42
			c1.43-5.51,1.17-10.78-1.66-15.74l-16.29-4.27c1.81-4.44,2.88-8.87,3.01-13.29c-6.08-8.94-15.64-14.19-29.82-14.55
			c2.55-5.95,6.46-11.2,12.1-15.58c0.04-11.81-6.54-17.38-17.64-18.67c-7.58,10.88-14.53,19.1-20.57,23.49
			c0.03-9.12,2-18.66,5.93-28.63C398.46,198.22,389.11,190.87,377.95,195.95z"/>
	</g>
	<g id="Capa_42">
		<path class="st0" d="M349.04,204.66c2.93-5.87,7.8-8.18,14.59-6.93C360.32,202.84,355.46,205.15,349.04,204.66z"/>
	</g>
	<g id="Capa_41">
		<path class="st0" d="M380.84,199.26c6.79-2.21,11.96-0.91,15.5,3.92C389.32,205.79,384.49,203.77,380.84,199.26z"/>
	</g>
	<g id="Capa_40">
		<path class="st0" d="M429.39,223.68c-0.59-5.98-3.96-9.75-9.94-11.47C420.56,218.42,423.82,222.3,429.39,223.68z"/>
	</g>
	<g id="Capa_39">
		<path class="st0" d="M420.54,248.41c9.47-1.09,17.53,2,24.02,9.74l-2.43,9.74c-4.35-1.55-10.4-3.02-17.09-3.81
			c-1.54-3.18-3.79-6.45-5.34-10.53C419.41,251.91,419.74,250.19,420.54,248.41z"/>
	</g>
	<g id="Capa_38">
		<path class="st0" d="M454.66,277.51c-2.87,5.22-4.15,10.59-4.18,16.08c-7.06-2.44-13.76-4-19.95-4.29
			c-0.48-6.15-1.67-12.25-3.6-18.31C436.65,272.42,445.94,274.51,454.66,277.51z"/>
	</g>
	<g id="Capa_37">
		<path class="st0" d="M456.62,297.35c6.4-5.06,8.04-11.57,4.92-19.52C455.84,282.75,454.2,289.25,456.62,297.35z"/>
	</g>
	<g id="Capa_36">
		<path class="st0" d="M436.08,297.35c-1.8-0.35-3.7-0.72-5.67-1.11c-0.85,8.52-2.39,16.48-5,23.54c-0.15,3.62-0.12,5.77,0,7.11
			l2.21,0.77C431.73,317.51,434.64,307.4,436.08,297.35z"/>
	</g>
	<g id="Capa_35">
		<path class="st0" d="M371.36,266.97c-12.47-13.43-31.87-22.57-57.06-28.12l0.17,17.49c28.86,8.74,45.13,21.35,42,39.91
			c5.15,5.06,11.63,6.66,19.38,4.99l2.84-12.05l4.17-1.83C382.52,276.83,383.16,265.26,371.36,266.97z"/>
	</g>
	<g id="Capa_34">
		<path class="st0" d="M314.3,262.78l0.17,17.38c9.07-4.1,19.9-3.72,32.23,0.44C338.54,271.97,328.62,265.14,314.3,262.78z"/>
	</g>
	<g id="Capa_33">
		<path class="st0" d="M386.17,344c2.5,6.32,2.57,12.55,0,18.7l4.33,0.39C393.64,356.12,392.19,349.75,386.17,344z"/>
	</g>
	<g id="Capa_32">
		<path class="st0" d="M418.61,326.51c-21.58,0.38-29.93-7.62-36.29-16.88c-3.04,9.71-3.23,18.27,0.53,25.17
			c16.16,15.11,13.61,21.52,11.83,28.29h41.1c-1.74-10.34-5.52-19.92-10.86-28.93c-1.68,5.51-5.06,6.57-8.91,6.8
			c-8.04,0.48-17.06-5.34-24.27-11.6l0.33-1.96c7.58,3.64,15.41,5.91,23.56,6.44c2.59,0.08,4.42-0.28,5.09-1.3
			C422.18,330.3,421.86,327.91,418.61,326.51z"/>
	</g>
	<g id="Capa_31">
		<path class="st0" d="M363.87,205.03c-3.32,2-6.71,3.38-10.21,3.8c-0.02,0.01-0.09,0.02-0.14,0.08c-0.21,0.23,0.07,0.8,0.16,1
			c7.22,20.91-1.56,25.4-8.84,31.42l-0.74,0.65c5.76,2.39,9.98,4.15,14.27,6.61c2.97,1.71,6.94,4.31,11.25,8.2
			c1.71-0.3,2.47-0.1,3.75,0c1.1,0.21,2.65,0.58,4.41,1.29c7.57,2.76,11.77,11.57,12.53,23.32c0.04,2.15,0.08,4.18-0.25,6.89
			c-0.32,2.73-0.85,4.79-1.07,5.64c-0.24,0.88-0.68,2.52-1.52,4.59c-1.3,3.19-1.85,3.24-1.84,4.45c0.01,1.32,0.98,2.6,2.91,5.15
			c0.71,0.93,1.66,2.18,3.16,3.63c0.41,0.39,1.86,1.77,4.05,3.25c0.4,0.27,2.26,1.5,4.99,2.73c1.08,0.48,3.09,1.38,5.86,2.06
			c5.02,1.24,8.35,0.76,9.71,0.96c0.02,0,0.06,0.01,0.11,0.01c0.38,0.04,0.69-0.01,0.79-0.04c0.28-0.06,0.5-0.16,0.6-0.22
			c0.58-0.33,0.85-1.37,0.85-1.37l1.07-2.91c0,0,0.79-1.86,1.9-5.35c0.45-1.41,1-3.16,1.45-5.48c0.31-1.61,0.44-2.78,0.69-5.13
			c0.18-1.7,0.39-3.61,0.49-6.15c0.07-1.72,0.15-3.86-0.02-6.69c-0.05-0.77-0.21-3.17-0.74-6.29c-0.21-1.25-0.61-3.35-1.3-5.91
			c-0.35-1.3-0.96-3.54-2.08-6.36c-1.18-2.98-2.51-5.55-2.93-6.36c-0.15-0.28-0.48-0.92-0.94-1.84c-0.83-1.65-1.27-2.53-1.57-3.22
			c-0.85-2.01-1.01-3.76-1.14-5.21c-0.22-2.39,0.02-4.22,0.18-5.39c0.34-2.53,0.96-4.38,1.34-5.51c0.34-1.01,1.09-3.04,2.42-5.44
			c1.46-2.63,2.94-4.47,3.42-5.06c2.51-3.04,3.73-4.07,3.67-4.23c-3.44-1.98-6.37-4.75-8.86-8.19c-0.41,0.04-1.48,1.4-4.59,5.64
			c-1.28,1.75-3.52,4.78-6.65,7.81c0,0-1.52,1.48-6.42,5.37c-0.05,0.04-0.16,0.13-0.31,0.22c-1.08,0.68-2.26,0.62-3.36,0.54
			c-0.77-0.05-1.43-0.11-2.22-0.47c-0.74-0.34-1.14-0.76-1.23-0.85c-0.38-0.4-0.56-0.79-0.72-1.12c-0.58-1.26-0.92-2.02-1.14-3.04
			c-0.31-1.45-0.19-2.62,0.07-4.66c0.51-4.05,0.76-6.08,1.16-8.01c0.53-2.56,1.1-4.61,1.21-4.99c1.44-5.15,1.86-6.46,1.77-6.71
			c-3.85-0.16-7.7-0.97-11.56-2.46c-0.03,7-0.6,13.55-2.08,19.3c-1.49,5.51-6.26,5.46-9.14,0.99
			C368.02,221.43,365.88,213.76,363.87,205.03z"/>
	</g>
	<g id="Capa_30">
		<path class="st0" d="M193.77,374.52h-14.71l-0.37,7.6c0.42,3.1,2.14,5.31,5.53,6.5c2.78,0.96,4.9,2.44,6.5,4.33
			c2.17,2.69,4.8,4.05,7.92,3.96c9,0.34,19.28-1.19,30.84-4.63c19.43-7.06,29.71,3.13-0.82,3.72c-14.89-0.86-32.46,5.52-34.54,13.61
			c-5.37,6.06-10.68,15-6.9,19.26c9.21-10.76,16.98-16.66,22.63-15.38c2.75-2.96,6.25-3.63,10.75-3.81
			c14.06-0.48,20.34,3.95,22.46,4.48c3.13,1.01,12.52-0.62,17.35-5.46c12.28-10.41,11.2-17.79-2.88-26.35
			c-4.59-3.39-9.66-6.01-15.22-7.82l-11.99-0.29C217.04,377.08,199.43,393.41,193.77,374.52z"/>
	</g>
	<g id="Capa_29">
		<path class="st0" d="M239.05,428.87c-5.75,6.26-12.02,12.04-18.74,17.42c-4.7,3.55-16.14,5.9-15.8-2.02
			c0.09-2.32,1.71-4.42,1.57-8.03c-0.2-6.81-3.45-7.36-3.72-0.33c-0.61,12.06-8.32,21.9-17.5,27.88c-2.13,1.22-1.5,3.54,1.57,1.44
			c4.1-2.59,8.09-6.38,12.08-10.5c4.11-4.28,9.01-2.64,8.29,2.02c-0.82,6.77-5.5,11.59-11.17,16.19
			c-15.46,12.37-35.11,5.27-21.94-11.83c8.18-7.45,2.9-15.1,0.33-17.29c-6.94-8.8-11.06-19.73-4.99-33.36
			c-7.24,1.12-7.9,19.81,0,32.67c10.38,13.29-5.75,20.92-12.16,6.25c-2.34-5.94-3.95-12.75-5.2-20.01
			c-2.39-15.46,1.38-26.69,10.61-32.71c3.86-2.3,3.98,0.37,12.08-5.93c1.71-1.98,15.97,6.79,16.69,11.49
			c0.38,3.19-4.89,9.04-8.42,16.25c-2.73,5.44-1.96,10.12,0.88,14.34c1.56,2.46,3.15,2.68,6.37,0.15
			c5.87-5.95,10.97-12.18,15.3-14.64c3.68-1.51,6.77-0.2,8.56,3.15l2.63,6.15c1.45,3.34,1,6.73-1.17,10.17
			c-2.94,4.79-0.01,4.53,2.2,0.81c3.25-5.69,2.55-10.58-0.73-14.93l-2.12-3.29c-2-2.69-1.9-5.87,2.27-6.29
			c6.44-0.6,13.49,0.67,19.1,2.63C242.08,419.08,243.21,423.11,239.05,428.87z"/>
	</g>
	<g id="Capa_28">
		<path class="st0" d="M245.92,436.13c-6.64,5.3-12.85,11.15-18.68,17.48c-3.87,4.44-7.01,15.69,0.92,15.9
			c2.32,0.07,4.53-1.39,8.12-1c6.78,0.68,7.1,3.95,0.07,3.74c-12.07-0.24-22.05,6.92-29.03,15.51c-1.36,2.04-3.63,1.25-1.32-1.66
			c2.87-3.91,6.93-7.63,11.32-11.32c4.56-3.8,3.26-8.8-1.43-8.41c-6.81,0.35-11.94,4.68-16.93,10.01
			c-13.63,14.73-4.67,36.34,10.28,22.71c8.01-7.64,15.27-1.84,17.27,0.88c8.3,7.53,18.91,12.41,32.93,7.31
			c-1.62,7.15-20.31,6.5-32.59-2.28c-12.54-11.29-20.05,4.26-7.08,11.7c5.76,2.74,12.44,4.83,19.6,6.58
			c15.26,3.47,26.72,0.48,33.37-8.3c2.56-3.69-0.09-4,6.76-11.63c2.09-1.57-5.66-16.4-10.3-17.45c-3.16-0.6-9.35,4.25-16.79,7.26
			c-5.62,2.34-10.23,1.25-14.25-1.88c-2.34-1.73-2.46-3.33,0.3-6.36c6.34-5.44,12.91-10.09,15.67-14.24
			c1.76-3.56,0.68-6.74-2.54-8.76l-5.95-3.06c-3.23-1.68-6.64-1.47-10.23,0.46c-4.98,2.59-4.52-0.3-0.65-2.25
			c5.91-2.85,10.73-1.81,14.84,1.77l3.14,2.35c2.55,2.18,5.73,2.3,6.44-1.82c1.05-6.39,0.27-13.51-1.3-19.24
			C255.89,433.79,251.95,432.38,245.92,436.13z"/>
	</g>
	<g id="Capa_27">
		<polygon class="st0" points="503.76,553.87 113.23,553.79 113.23,598.7 503.76,598.7 		"/>
	</g>
	<g id="Capa_26">
		<polygon class="st0" points="495.29,604.97 473.94,604.97 473.94,622.45 		"/>
	</g>
	<g id="Capa_25">
		<path class="st0" d="M508.16,576.9v23.59c0.03,1.29-0.76,2.99-1.83,3.86l-22.58,19.02h86.54l-22.58-21.56l22.58-24.92H508.16z"/>
	</g>
	<g id="Capa_24">
		<polygon class="st0" points="142.9,604.97 142.9,623.41 121.34,604.97 		"/>
	</g>
	<g id="Capa_23">
		<path class="st0" d="M108.86,576.9H46.73l22.48,24.65l-22.48,21.85h86.37l-20.94-17.59c-2.4-2.53-3.32-4.34-3.43-8.28
			L108.86,576.9z"/>
	</g>
</g>
<g id="Capa_45">
	<text transform="matrix(-1 0 0 1 402.6572 586.163)" class="st1 st2 st3">C.E.E.I.B.I.S.</text>
</g>
</svg>
