<?xml version="1.0" encoding="utf-8"?>
<!-- Generator: Adobe Illustrator 23.0.2, SVG Export Plug-In . SVG Version: 6.00 Build 0)  -->
<svg version="1.1" xmlns="http://www.w3.org/2000/svg" xmlns:xlink="http://www.w3.org/1999/xlink" x="0px" y="0px"
	 viewBox="0 0 612 792" style="enable-background:new 0 0 612 792;" xml:space="preserve">
<style type="text/css">
	.st0{fill:#0099FF;stroke:#FFFFFF;stroke-miterlimit:10;}
	.st1{fill:#FFFFFF;}
	.st2{font-family:'ArialRoundedMTBold';}
	.st3{font-size:30px;}
</style>
<g id="Capa_1">
	<g id="Capa_20">
		<path class="st0" d="M314.65,139.21c71.31,38.44,140.31,59.12,207.44,65.35c-0.46,48.9-3.71,102.22-8.8,158.42h-66.63
			c-0.72-0.13-1.19-0.68-1.31-1.84v-7.4c0.19-2.11,3.23-3.09,6.75-3.81c6.54-1.28,8.62-0.31,8.05-7.29
			c-1.1-8.68-3.47-7.65-8.49-7.07c-6.54,0.68-8.68,0.82-9.47-5.98c-1.13-6.53-0.01-7.86,5.33-9.14c6.19-1.24,7.65-3.18,5.88-9.68
			c-1.9-5.76-2.94-6.38-9.9-4.13c-5.79,1.7-7.18,2.11-10.01-3.92c-2.86-5.67-1.9-6.94,3.26-10.34c5.32-3.45,6.5-4.56,2.83-10.77
			c-3.51-5.17-4.58-4.21-9.68-1.41c-6.26,3.19-7.5,3.47-11.54-1.74c-3.36-5.17-3.61-5.68,1.53-10.77c4.84-5.2,5.56-6.33,0.87-11.1
			c-4.55-4-5.67-3.24-10.23,0.76c-5.7,4.59-6.93,4.65-11.42,0.76c-4.29-4.06-5.47-5.16-0.76-11.32c3.68-4.91,4.51-5.95-1.74-10.44
			c-5.46-3.68-5.8-2.64-10.12,3.05c-4.62,6.37-5.39,5.95-11.21,2.72c-5.06-3.35-5.47-2.93-2.83-10.01
			c2.83-7.47,2.83-7.47-3.37-10.23c-6.76-2.79-7.03-2.03-9.68,4.46c-3.38,6.68-4.07,7.23-9.57,5.55c-6.76-2.41-7.52-1.92-5.88-9.47
			c0.99-4.65,1.61-8.32-5.66-9.25c-7.21-0.88-7.7,0.65-8.38,6.85c-1.12,8.21-2.44,7.51-8.38,7.29c-5.98-0.12-6.9-1.02-6.9-6.2
			V139.21z"/>
	</g>
	<g id="Capa_19">
		<path class="st0" d="M314.65,363.09l38.37-0.11c0.93-26.53-12.62-42.01-38.37-43.7V363.09z"/>
	</g>
	<g id="Capa_18">
		<path class="st0" d="M373.05,362.98h47.21c0.48-11.41-0.21-21.94-3.03-30.9c-2.4-7.42-7.14-10.54-14.98-7.91l-25.33,14.56
			c-3.49,2.22-5.51,4.33-4.54,8.25C373.42,352.37,373.6,357.7,373.05,362.98z"/>
	</g>
	<g id="Capa_17">
		<path class="st0" d="M362.26,313l23.39-13.3c9.04-5.64,9.05-12.41,0-20.32c-11.08-9.96-24.59-17.62-40.57-22.93
			c-8.38-2.43-15.32,0.08-15.6,9.07v30.92c0.02,3.75,1.66,4.73,5.08,5.88c5.54,2.06,11.29,5.4,17.22,9.76
			C356.36,315.5,357.09,315.81,362.26,313z"/>
	</g>
	<g id="Capa_16">
		<path class="st0" d="M106.13,374.52c14.16,69.08,36.7,127.59,69.64,172.97l126.95,0v-39.71c-20.65-7.32-38.51-26.4-53.69-56.75
			l11.79,2.82c13.36,20.49,27.23,35.4,41.9,41.51v-8.2l-5.52-3.2l5.52-6.28v-15.12l-13.59,15.12l-7.05-6.41
			c5.43-5.83,11.37-12.27,18.06-19.22c-68.85,3.02-106.72-27.4-126.31-77.54H106.13z"/>
	</g>
	<g id="Capa_15">
		<path class="st0" d="M176.21,374.52h8.31c1.03,2.81,2.56,5.62,4.57,8.43l7.57-8.43h13.45l-15.26,16.78l6.1,7.43l16.51-18.93
			c1.07,3.54,2.37,7.32,3.87,11.3l-13.3,14.4c2.13,2.18,4.64,4.17,7.51,5.97l9.52-11.05c3.79,9.35,8.11,18.61,12.95,27.77l11.41,4.2
			c-10.28-19.82-19.23-39.17-26.43-57.87h79.54l0.17,67.54C240.13,443.91,199.11,420.03,176.21,374.52z"/>
	</g>
	<g id="Capa_14">
		<path class="st0" d="M302.72,604.97v59.16c-29.69-15.14-55.39-35.41-78.4-59.16H302.72z"/>
	</g>
	<g id="Capa_13">
		<path class="st0" d="M314.7,604.97v59.16c26.88-12.88,52.61-33.33,77.53-59.16H314.7z"/>
	</g>
	<g id="Capa_12">
		<path class="st0" d="M457.56,374.52h53.46c-12.88,66.79-36.33,124.29-69.62,173.14l-126.7-0.16V516.2
			c10.26,6.26,19.11,8.53,27.17,4.47c17.17,13.57,26.69,9.62,42.11,6.02c17.34-3.62,25.58-10.01,24.92-20.28
			c15.53,5.21,25.45-4.92,19.25-23.55c19.31,4.48,28.92-6.16,22.41-21.77c20.66,1.97,28.2-54.95,9.4-67.25
			C462.78,387.47,462.21,381.03,457.56,374.52z"/>
	</g>
	<g id="Capa_11">
		<path class="st0" d="M443.13,374.52h8.5c3.9,4.91,5.52,10.18,4.58,15.84c-0.43,1.67-1.43,1.9-2.57,1.34
			C442.7,387.19,442.64,385.36,443.13,374.52z"/>
	</g>
	<g id="Capa_10">
		<path class="st0" d="M420.14,374.52c-3.03,3.72-8.72,2.58-15.13,0H420.14z"/>
	</g>
	<g id="Capa_9">
		<path class="st0" d="M364.17,374.52c-11.36,15.77-24.13,15.08-37.46,0H364.17z"/>
	</g>
	<g id="Capa_8">
		<path class="st0" d="M314.7,427.31c14.23-10.93,14.69-23.24,0-37.07V427.31z"/>
	</g>
	<g id="Capa_7">
		<path class="st0" d="M314.7,484.66c13.73-2.88,1.93-15.68,0-31.37V484.66z"/>
	</g>
	<g id="Capa_6">
		<path class="st0" d="M392.58,449.36c2.7,4.64,4.86,9.01,5.5,12.61c2.34-0.71,4.76-0.66,7.26,0c-0.81-2.63-0.76-5.25,0-7.84
			C401.23,453.44,396.96,451.76,392.58,449.36z"/>
	</g>
	<g id="Capa_5">
		<path class="st0" d="M353.09,411.64c5.61,4.6,12.47,7.75,17.76,7.44c-0.73,5.2,0.47,9.67,3.44,13.49
			c-4.87-2.71-9.29-3.59-13.15-2.25c-1.68-7.08-4.95-13.18-9.01-17.67c-0.49-0.47-2.3-1.34-3.19-1.5c-0.1-1.02-0.33-1.92-1.42-2.66
			c-5.48-3.97-11.71-5.28-17.28-2.84c-2.06-9.64-8.27-16.21-15.54-21.57v-9.54h5.88c5.37,8.79,13.22,13.92,23.34,15.71
			c-2.75,5.18-0.14,11.61,4.68,17.09c0.65,0.84,1.37,1.22,2.57,1.49C351.38,409.79,352.05,410.73,353.09,411.64z"/>
	</g>
	<g id="Capa_4">
		<path class="st0" d="M314.7,503.86v6.99c5.69,3.59,14.66,8.55,21.13,6.99c0.57-0.14,5.07-1.28,2.11-5.36l-4.06-5.52
			c-2.34-4.1-8.65-1.76-10.24-1.62C322.02,505.62,317.24,504.57,314.7,503.86z"/>
	</g>
	<g id="Capa_3">
		<path class="st0" d="M332.69,442.11c-4.76-13.63,3.16-16.68,5.36-0.94c1.14,14.9,3.6,27.21,9.17,36.2
			c1.99,3.23,6.7,6.45,13.64,9.18c5.7,2.28,9.84,5.02,12.33,2.75c0.78-0.64,1.31-1.11,0-2.1c-10.59-7.22-15.6-14.06-16.13-20.59
			c-7.15-6.38-4.83-19.73-1.18-34.05c1.52-5.98-5.74-17.11-14.56-22.35c-5.67-3.07-10.92-1.5-14.43,4.85l-7.61,14.3
			c-3.7,7.44-4.01,14.37-1.32,20.85l8.79,18.76c3.16,8.82,0.76,12.53-4.2,14.94l-7.87,3.86v11.14c1.87,0.76,4.07,1.25,6.55,1.52
			c9.37,1.43,12.5-2.83,13.23-6.33c0.65-2.99,2.9-6.25,5.54-8.98C345.48,479.03,338.45,459.15,332.69,442.11z"/>
	</g>
	<g id="Capa_44">
		<path class="st0" d="M239.48,333.58c1.04-4.22,1.05-7.69,1.05-9.81c0-2.2-0.03-5.12-0.86-8.76c-1.15-5.06-3.16-8.44-2.38-8.95
			c0.31-0.2,0.8,0.22,1.62,0.67c2.21,1.21,4.22,1.18,8,1.14c1.43-0.02,4.01-0.15,7.14-0.95c2.95-0.76,5.75-1.47,8.48-3.81
			c1.51-1.29,2.7-2.31,3.33-4.1c1.41-3.95-1.5-7.21,0.48-9.81c0.32-0.43,0.88-0.76,2-1.43c2.07-1.23,4-1.89,7.52-2.76
			c4.01-0.99,6.01-1.49,8.38-1.71c1.56-0.15,4.15-0.38,7.33,0c2.45,0.29,6.48,1.09,11.05,3.62l0.1,75.94
			c-7.72,0.54-59.91,0.01-60.33,0c-0.16-0.47-9.4-7.7-10.05-7.75c-0.54-0.16-0.19-3.33-0.19-3.33c0.18-0.37,0.45-0.93,0.76-1.62
			c0.63-1.4,1.03-2.47,1.14-2.76C235.66,343.16,238.11,339.15,239.48,333.58z"/>
	</g>
	<g id="Capa_43">
		<path class="st0" d="M239.08,195.95c2.61,3.16,1.42,18.11,3.72,24.2c2.64-8.55,4.87-17.14,6.64-25.79
			c13.03-3.83,22.54,4.7,23.48,10.66c-1.23,3.12-3.49,5.46-4.54,8.01c-0.73,1.68-3.36,9.52-1.38,14.07
			c1.3,4.36,11.87,13.05,12.02,12.23l11.22-3.67c4.5-1.28,8.66-2.08,12.31-2.6v-93.86c-27.87,15.46-63.95,32.31-107.66,45.53
			c-37.73,11.41-72.02,17.35-100.63,20.42c0.68,25.75,1.78,52.24,3.37,79.42c1.58,26.92,3.55,53.1,5.85,78.52h71.44
			c1.35-9.98,4.56-19.36,10.04-28c-3.84-13-7.35-25.33-9.49-37.1l-15.9,4.27c-4.93-2.84-7.82-6.99-8.7-12.42
			c-1.43-5.51-1.17-10.78,1.66-15.74l16.29-4.27c-1.81-4.44-2.88-8.87-3.01-13.29c6.08-8.94,15.64-14.19,29.82-14.55
			c-2.55-5.95-6.46-11.2-12.1-15.58c-0.04-11.81,6.54-17.38,17.64-18.67c7.58,10.88,14.53,19.1,20.57,23.49
			c-0.03-9.12-2-18.66-5.93-28.63C218.57,198.22,227.91,190.87,239.08,195.95z"/>
	</g>
	<g id="Capa_42">
		<path class="st0" d="M267.99,204.66c-2.93-5.87-7.8-8.18-14.59-6.93C256.71,202.84,261.57,205.15,267.99,204.66z"/>
	</g>
	<g id="Capa_41">
		<path class="st0" d="M236.19,199.26c-6.79-2.21-11.96-0.91-15.5,3.92C227.71,205.79,232.54,203.77,236.19,199.26z"/>
	</g>
	<g id="Capa_40">
		<path class="st0" d="M187.64,223.68c0.59-5.98,3.96-9.75,9.94-11.47C196.47,218.42,193.21,222.3,187.64,223.68z"/>
	</g>
	<g id="Capa_39">
		<path class="st0" d="M196.49,248.41c-9.47-1.09-17.53,2-24.02,9.74l2.43,9.74c4.35-1.55,10.4-3.02,17.09-3.81
			c1.54-3.18,3.79-6.45,5.34-10.53C197.62,251.91,197.29,250.19,196.49,248.41z"/>
	</g>
	<g id="Capa_38">
		<path class="st0" d="M162.37,277.51c2.87,5.22,4.15,10.59,4.18,16.08c7.06-2.44,13.76-4,19.95-4.29
			c0.48-6.15,1.67-12.25,3.6-18.31C180.38,272.42,171.09,274.51,162.37,277.51z"/>
	</g>
	<g id="Capa_37">
		<path class="st0" d="M160.41,297.35c-6.4-5.06-8.04-11.57-4.92-19.52C161.19,282.75,162.83,289.25,160.41,297.35z"/>
	</g>
	<g id="Capa_36">
		<path class="st0" d="M180.95,297.35c1.8-0.35,3.7-0.72,5.67-1.11c0.85,8.52,2.39,16.48,5,23.54c0.15,3.62,0.12,5.77,0,7.11
			l-2.21,0.77C185.3,317.51,182.39,307.4,180.95,297.35z"/>
	</g>
	<g id="Capa_35">
		<path class="st0" d="M245.67,266.97c12.47-13.43,31.87-22.57,57.06-28.12l-0.17,17.49c-28.86,8.74-45.13,21.35-42,39.91
			c-5.15,5.06-11.63,6.66-19.38,4.99l-2.84-12.05l-4.17-1.83C234.51,276.83,233.86,265.26,245.67,266.97z"/>
	</g>
	<g id="Capa_34">
		<path class="st0" d="M302.72,262.78l-0.17,17.38c-9.07-4.1-19.9-3.72-32.23,0.44C278.49,271.97,288.41,265.14,302.72,262.78z"/>
	</g>
	<g id="Capa_33">
		<path class="st0" d="M230.86,344c-2.5,6.32-2.57,12.55,0,18.7l-4.33,0.39C223.39,356.12,224.84,349.75,230.86,344z"/>
	</g>
	<g id="Capa_32">
		<path class="st0" d="M198.41,326.51c21.58,0.38,29.93-7.62,36.29-16.88c3.04,9.71,3.23,18.27-0.53,25.17
			c-16.16,15.11-13.61,21.52-11.83,28.29h-41.1c1.74-10.34,5.52-19.92,10.86-28.93c1.68,5.51,5.06,6.57,8.91,6.8
			c8.04,0.48,17.06-5.34,24.27-11.6l-0.33-1.96c-7.58,3.64-15.41,5.91-23.56,6.44c-2.59,0.08-4.42-0.28-5.09-1.3
			C194.85,330.3,195.16,327.91,198.41,326.51z"/>
	</g>
	<g id="Capa_31">
		<path class="st0" d="M253.16,205.03c3.32,2,6.71,3.38,10.21,3.8c0.02,0.01,0.09,0.02,0.14,0.08c0.21,0.23-0.07,0.8-0.16,1
			c-7.22,20.91,1.56,25.4,8.84,31.42l0.74,0.65c-5.76,2.39-9.98,4.15-14.27,6.61c-2.97,1.71-6.94,4.31-11.25,8.2
			c-1.71-0.3-2.47-0.1-3.75,0c-1.1,0.21-2.65,0.58-4.41,1.29c-7.57,2.76-11.77,11.57-12.53,23.32c-0.04,2.15-0.08,4.18,0.25,6.89
			c0.32,2.73,0.85,4.79,1.07,5.64c0.24,0.88,0.68,2.52,1.52,4.59c1.3,3.19,1.85,3.24,1.84,4.45c-0.01,1.32-0.98,2.6-2.91,5.15
			c-0.71,0.93-1.66,2.18-3.16,3.63c-0.41,0.39-1.86,1.77-4.05,3.25c-0.4,0.27-2.26,1.5-4.99,2.73c-1.08,0.48-3.09,1.38-5.86,2.06
			c-5.02,1.24-8.35,0.76-9.71,0.96c-0.02,0-0.06,0.01-0.11,0.01c-0.38,0.04-0.69-0.01-0.79-0.04c-0.28-0.06-0.5-0.16-0.6-0.22
			c-0.58-0.33-0.85-1.37-0.85-1.37l-1.07-2.91c0,0-0.79-1.86-1.9-5.35c-0.45-1.41-1-3.16-1.45-5.48c-0.31-1.61-0.44-2.78-0.69-5.13
			c-0.18-1.7-0.39-3.61-0.49-6.15c-0.07-1.72-0.15-3.86,0.02-6.69c0.05-0.77,0.21-3.17,0.74-6.29c0.21-1.25,0.61-3.35,1.3-5.91
			c0.35-1.3,0.96-3.54,2.08-6.36c1.18-2.98,2.51-5.55,2.93-6.36c0.15-0.28,0.48-0.92,0.94-1.84c0.83-1.65,1.27-2.53,1.57-3.22
			c0.85-2.01,1.01-3.76,1.14-5.21c0.22-2.39-0.02-4.22-0.18-5.39c-0.34-2.53-0.96-4.38-1.34-5.51c-0.34-1.01-1.09-3.04-2.42-5.44
			c-1.46-2.63-2.94-4.47-3.42-5.06c-2.51-3.04-3.73-4.07-3.67-4.23c3.44-1.98,6.37-4.75,8.86-8.19c0.41,0.04,1.48,1.4,4.59,5.64
			c1.28,1.75,3.52,4.78,6.65,7.81c0,0,1.52,1.48,6.42,5.37c0.05,0.04,0.16,0.13,0.31,0.22c1.08,0.68,2.26,0.62,3.36,0.54
			c0.77-0.05,1.43-0.11,2.22-0.47c0.74-0.34,1.14-0.76,1.23-0.85c0.38-0.4,0.56-0.79,0.72-1.12c0.58-1.26,0.92-2.02,1.14-3.04
			c0.31-1.45,0.19-2.62-0.07-4.66c-0.51-4.05-0.76-6.08-1.16-8.01c-0.53-2.56-1.1-4.61-1.21-4.99c-1.44-5.15-1.86-6.46-1.77-6.71
			c3.85-0.16,7.7-0.97,11.56-2.46c0.03,7,0.6,13.55,2.08,19.3c1.49,5.51,6.26,5.46,9.14,0.99
			C249.01,221.43,251.15,213.76,253.16,205.03z"/>
	</g>
	<g id="Capa_30">
		<path class="st0" d="M423.26,374.52h14.71l0.37,7.6c-0.42,3.1-2.14,5.31-5.53,6.5c-2.78,0.96-4.9,2.44-6.5,4.33
			c-2.17,2.69-4.8,4.05-7.92,3.96c-9,0.34-19.28-1.19-30.84-4.63c-19.43-7.06-29.71,3.13,0.82,3.72
			c14.89-0.86,32.46,5.52,34.54,13.61c5.37,6.06,10.68,15,6.9,19.26c-9.21-10.76-16.98-16.66-22.63-15.38
			c-2.75-2.96-6.25-3.63-10.75-3.81c-14.06-0.48-20.34,3.95-22.46,4.48c-3.13,1.01-12.52-0.62-17.35-5.46
			c-12.28-10.41-11.2-17.79,2.88-26.35c4.59-3.39,9.66-6.01,15.22-7.82l11.99-0.29C399.99,377.08,417.6,393.41,423.26,374.52z"/>
	</g>
	<g id="Capa_29">
		<path class="st0" d="M377.97,428.87c5.75,6.26,12.02,12.04,18.74,17.42c4.7,3.55,16.14,5.9,15.8-2.02
			c-0.09-2.32-1.71-4.42-1.57-8.03c0.2-6.81,3.45-7.36,3.72-0.33c0.61,12.06,8.32,21.9,17.5,27.88c2.13,1.22,1.5,3.54-1.57,1.44
			c-4.1-2.59-8.09-6.38-12.08-10.5c-4.11-4.28-9.01-2.64-8.29,2.02c0.82,6.77,5.5,11.59,11.17,16.19
			c15.46,12.37,35.11,5.27,21.94-11.83c-8.18-7.45-2.9-15.1-0.33-17.29c6.94-8.8,11.06-19.73,4.99-33.36
			c7.24,1.12,7.9,19.81,0,32.67c-10.38,13.29,5.75,20.92,12.16,6.25c2.34-5.94,3.95-12.75,5.2-20.01
			c2.39-15.46-1.38-26.69-10.61-32.71c-3.86-2.3-3.98,0.37-12.08-5.93c-1.71-1.98-15.97,6.79-16.69,11.49
			c-0.38,3.19,4.89,9.04,8.42,16.25c2.73,5.44,1.96,10.12-0.88,14.34c-1.56,2.46-3.15,2.68-6.37,0.15
			c-5.87-5.95-10.97-12.18-15.3-14.64c-3.68-1.51-6.77-0.2-8.56,3.15l-2.63,6.15c-1.45,3.34-1,6.73,1.17,10.17
			c2.94,4.79,0.01,4.53-2.2,0.81c-3.25-5.69-2.55-10.58,0.73-14.93l2.12-3.29c2-2.69,1.9-5.87-2.27-6.29
			c-6.44-0.6-13.49,0.67-19.1,2.63C374.95,419.08,373.82,423.11,377.97,428.87z"/>
	</g>
	<g id="Capa_28">
		<path class="st0" d="M371.11,436.13c6.64,5.3,12.85,11.15,18.68,17.48c3.87,4.44,7.01,15.69-0.92,15.9
			c-2.32,0.07-4.53-1.39-8.12-1c-6.78,0.68-7.1,3.95-0.07,3.74c12.07-0.24,22.05,6.92,29.03,15.51c1.36,2.04,3.63,1.25,1.32-1.66
			c-2.87-3.91-6.93-7.63-11.32-11.32c-4.56-3.8-3.26-8.8,1.43-8.41c6.81,0.35,11.94,4.68,16.93,10.01
			c13.63,14.73,4.67,36.34-10.28,22.71c-8.01-7.64-15.27-1.84-17.27,0.88c-8.3,7.53-18.91,12.41-32.93,7.31
			c1.62,7.15,20.31,6.5,32.59-2.28c12.54-11.29,20.05,4.26,7.08,11.7c-5.76,2.74-12.44,4.83-19.6,6.58
			c-15.26,3.47-26.72,0.48-33.37-8.3c-2.56-3.69,0.09-4-6.76-11.63c-2.09-1.57,5.66-16.4,10.3-17.45c3.16-0.6,9.35,4.25,16.79,7.26
			c5.62,2.34,10.23,1.25,14.25-1.88c2.34-1.73,2.46-3.33-0.3-6.36c-6.34-5.44-12.91-10.09-15.67-14.24
			c-1.76-3.56-0.68-6.74,2.54-8.76l5.95-3.06c3.23-1.68,6.64-1.47,10.23,0.46c4.98,2.59,4.52-0.3,0.65-2.25
			c-5.91-2.85-10.73-1.81-14.84,1.77l-3.14,2.35c-2.55,2.18-5.73,2.3-6.44-1.82c-1.05-6.39-0.27-13.51,1.3-19.24
			C361.14,433.79,365.08,432.38,371.11,436.13z"/>
	</g>
	<g id="Capa_27">
		<polygon class="st0" points="113.26,553.87 503.8,553.79 503.8,598.7 113.26,598.7 		"/>
	</g>
	<g id="Capa_26">
		<polygon class="st0" points="121.74,604.97 143.09,604.97 143.09,622.45 		"/>
	</g>
	<g id="Capa_25">
		<path class="st0" d="M108.86,576.9v23.59c-0.03,1.29,0.76,2.99,1.83,3.86l22.58,19.02H46.73l22.58-21.56L46.73,576.9H108.86z"/>
	</g>
	<g id="Capa_24">
		<polygon class="st0" points="474.13,604.97 474.13,623.41 495.68,604.97 		"/>
	</g>
	<g id="Capa_23">
		<path class="st0" d="M508.17,576.9h62.13l-22.48,24.65l22.48,21.85h-86.37l20.94-17.59c2.4-2.53,3.32-4.34,3.43-8.28L508.17,576.9
			z"/>
	</g>
</g>
<g id="Capa_45">
	<text transform="matrix(1 0 0 1 214.3708 586.163)" class="st1 st2 st3">C.E.E.I.B.I.S.</text>
</g>
</svg>
